# xmcd CD database file
#
# Track frame offsets:
#        150
#        20775
#        32777
#        47900
#        67790
#        88800
#        108610
#        122742
#        141377
#        156355
#        172907
#        182967
#        199827
#        215912
#        235067
#        249185
#        260290
#        276585
#        288522
#        305022
#        321520
#
# Disc length: 4449 seconds
#
# Revision: 0
# Processed by: cddbd v1.5.2PL0 Copyright (c) Steve Scherf et al.
# Submitted via: CUERipper 2.1.5
#
DISCID=4c115f15
DTITLE=Various Artist - Hightone Records - The First Ten Years
DYEAR=1994
DGENRE=
TTITLE0=Fourth Of July/Dave Alvin
TTITLE1=County Fair/Phil Alvin
TTITLE2=Tore Up/Otis Rush
TTITLE3=Love and Danger/Rosie Flores
TTITLE4=Don't Be Afraid Of The Dark/Phillip Walker
TTITLE5=Dark End Of The Street/Gary Stewart
TTITLE6=I'll Get To Heaven On My Own/Joe Louis Walker
TTITLE7=Scalped/Dick Dale
TTITLE8=Deep Eddy Blues/Jimmie Dale Gilmore
TTITLE9=Pretty Baby/The Loved Ones
TTITLE10=We Used To Fuss/The Lonesome Strangers
TTITLE11=Fool For Love/Chris Thomas
TTITLE12=I Becha/Lonesome Sundown
TTITLE13=Take A Letter Maria/The Pleasure Barons
TTITLE14=I'm Down/Doug MacLeod
TTITLE15=I Feel So Bad/Eddie Taylor
TTITLE16=Teenie Weenie Meanie/Rev Billy C Wirtz
TTITLE17=Hi-Billy Music/Big Sandy and His Fly-Rite Boys
TTITLE18=Calhoun City/Billy Lee Riley
TTITLE19=Quiet Desparation/Chris Gaffney
TTITLE20=Give My Heart A Break/Johnny Shines
EXTD=
EXTT0=
EXTT1=
EXTT2=
EXTT3=
EXTT4=
EXTT5=
EXTT6=
EXTT7=
EXTT8=
EXTT9=
EXTT10=
EXTT11=
EXTT12=
EXTT13=
EXTT14=
EXTT15=
EXTT16=
EXTT17=
EXTT18=
EXTT19=
EXTT20=
PLAYORDER=
